<?xml version="1.0" encoding="UTF-8"?>
<svg width="1409px" height="756px" viewBox="0 0 1409 756" version="1.1" xmlns="http://www.w3.org/2000/svg" xmlns:xlink="http://www.w3.org/1999/xlink">
    <title>unplugged-cable-left</title>
    <g id="unplugged-cable-left" stroke="none" stroke-width="1" fill="none" fill-rule="evenodd">
        <path d="M182.03,422.81 C184.523333,422.843333 186.623333,422.486667 188.33,421.74 L295.32,421.05 C296.143247,421.044161 296.912518,421.458964 297.36,422.15 C303.3,431.27 313.12,434.63 323.88,435.32 C334.513333,435.993333 341.176667,436.473333 343.87,436.76 C353.7,437.8 364.44,437.9 374.43,439.37 C378.823333,440.023333 382.653333,441.453333 385.92,443.66 C389.9,446.35 394.04,453.41 396.83,456.22 C396.840252,456.205218 397.040898,456.5847 397.29,457.09 C397.416667,457.356667 397.516667,457.533333 397.59,457.62 C404.723333,466.026667 413.113333,471.236667 422.76,473.25 C427.533333,474.25 433.623333,474.986667 441.03,475.46 C464.11,476.946667 487.436667,477.606667 511.01,477.44 C518.69,477.393333 532.986667,477.15 553.9,476.71 C559.47,476.59 566.67,475.88 573.37,475.9 C574.836667,475.906667 577.436667,475.793333 581.17,475.56 C587.67,475.16 593.533333,474.933333 598.76,474.88 C601.786667,474.853333 605.183333,474.523333 608.95,473.89 C617.303333,472.496667 623.256667,468.06 626.81,460.58 C627.683333,458.753333 628.363333,457.456667 628.85,456.69 C629.021921,456.42547 629.238723,456.195118 629.49,456.01 L637.07,450.58 C637.673612,450.144783 638.399853,449.916737 639.14,449.93 C661.52,450.243333 684.636667,450.2 708.49,449.8 C712.87,449.72 717.453333,448.863333 722.24,447.23 C734.46,443.05 740.9,430.82 741.72,418.5 C742.24,410.64 742.483333,401.306667 742.45,390.5 C742.376667,363.88 742.156667,346.463333 741.79,338.25 C741.583333,333.683333 740.406667,328.986667 738.26,324.16 C732,310.11 719.16,305.62 704.83,305.29 C682.81,304.776667 660.5,304.83 637.9,305.45 C637.164952,305.4692 636.448115,305.22434 635.88,304.76 C633.19,302.6 629.45,300.76 627.85,297.38 C622.53,286.14 612.8,281.57 600.83,281.17 C558.816667,279.776667 517.303333,279.363333 476.29,279.93 C462.736667,280.116667 448.893333,280.656667 434.76,281.55 C419.18,282.54 406.17,286.43 396.63,299.65 C390.74,307.82 387.47,314.34 377.22,316.16 C374.373333,316.66 371.55,316.963333 368.75,317.07 C355.856667,317.55 341.193333,318.453333 324.76,319.78 C313.57,320.69 303.24,323.73 297.33,334.06 C296.798619,334.98493 295.806554,335.547994 294.74,335.53 L276.03,335.14 C276.176667,335.066667 276.266667,334.96 276.3,334.82 C276.319069,334.748839 276.308231,334.672976 276.27,334.61 C276.163333,334.463333 276.003333,334.316667 275.79,334.17 L294.4,334.13 C295.287096,334.129747 296.11429,333.68231 296.6,332.94 C303.47,322.55 313.75,319.13 325.82,318.12 C334.373333,317.4 347.516667,316.61 365.25,315.75 C367.183333,315.65 370.76,315.3 375.98,314.7 C383.42,313.84 387.83,310.1 392.14,303.72 C395.97,298.06 399.34,293.44 404.13,289.63 C411.33,283.9 421.44,281 430.51,280.26 C449.53,278.7 469.18,278.71 487.25,278.23 C499.243333,277.916667 514.33,277.956667 532.51,278.35 C550.723333,278.736667 561.89,278.926667 566.01,278.92 C585.05,278.9 596.21,278.98 599.49,279.16 C609.24,279.7 618.24,281.92 624.89,289.6 C625.43,290.22 626.946667,292.67 629.44,296.95 C630.6,298.95 632.666667,300.67 635.64,302.11 C637.22,302.876667 639.876667,303.226667 643.61,303.16 C653.07,303.006667 666.196667,302.983333 682.99,303.09 C692.07,303.15 702.77,303.74 709.47,304.09 C712.183333,304.23 715.733333,304.926667 720.12,306.18 C732.23,309.65 739.85,319.95 742.5,332.02 C743.413333,336.193333 743.91,340.853333 743.99,346 C744.45,374.686667 744.53,396.266667 744.23,410.74 C743.85,428.73 738.12,444.6 719.42,449.81 C711.89,451.91 704.03,451.91 694,451.93 C677.866667,451.956667 661.69,451.943333 645.47,451.89 C641.696667,451.876667 638.953333,452.28 637.24,453.1 C634.613333,454.353333 632.336667,456.01 630.41,458.07 C630.157665,458.33563 629.939338,458.631212 629.76,458.95 C627.846667,462.336667 626.433333,464.606667 625.52,465.76 C616.8,476.81 603.11,477.01 590.25,477.25 C569.043333,477.643333 547.626667,478.12 526,478.68 C519.17,478.86 511.78,478.51 506,478.6 C488.353333,478.88 467.526667,478.463333 443.52,477.35 C424.59,476.47 408.86,474.13 396.5,458.74 C394.62,456.4 392.676667,453.856667 390.67,451.11 C384.67,442.91 375.03,440.87 365.24,440.07 C350.84,438.896667 337.35,437.88 324.77,437.02 C314.03,436.29 303.1,432.4 296.62,423.62 C296.073085,422.877845 295.204465,422.439823 294.28,422.44 L182.03,422.81 Z" id="Path" fill="#C6C6C6" fill-rule="nonzero"></path>
        <path d="M1,401.28 L1,393.14 C20.06,393.366667 39.1166667,393.613333 58.17,393.88 C78.35,394.166667 97.4066667,394.32 115.34,394.34 C168.1,394.406667 215.16,394.373333 256.52,394.24 C275.24,394.18 292.11,392.88 309.88,393.4 C310.198918,393.410923 310.508459,393.29111 310.736915,393.068319 C310.96537,392.845528 311.092914,392.539091 311.09,392.22 L311.03,386.07 L311.09,364.01 C311.09,363.264416 310.485584,362.66 309.74,362.66 C297.946667,362.68 286.2,362.683333 274.5,362.67 C233.273333,362.616667 165.026667,362.503333 69.76,362.33 C65.9666667,362.323333 62.6833333,362.223333 59.91,362.03 C54.6433333,361.663333 51.3633333,361.473333 50.07,361.46 C33.71,361.293333 17.3533333,361.283333 1,361.43 L1,354.37 C87.54,354.396667 160.706667,354.573333 220.5,354.9 C227.746667,354.94 237.08,355.156667 248.5,355.55 C271.01,356.33 290.58,356.24 310.32,356.4 C310.613421,356.402903 310.895363,356.285183 311.100968,356.07392 C311.306572,355.862657 311.418138,355.576039 311.41,355.28 C311.343333,352.42 311.673333,349.64 312.4,346.94 C313.94,341.26 317.53,340.43 323.35,340 C339.65,338.8 355.556667,337.863333 371.07,337.19 C378.296667,336.87 383.686667,336.116667 387.24,334.93 C392.68,333.11 397.566667,329.9 401.9,325.3 C403.393333,323.713333 405.506667,320.783333 408.24,316.51 C410.453333,313.05 413.3,309.723333 416.78,306.53 C418.086667,305.33 419.836667,304.416667 422.03,303.79 C425.37,302.83 430.903333,302.193333 438.63,301.88 C484.023333,300.066667 529.48,299.913333 575,301.42 C581.793333,301.646667 591.63,301.65 604.51,301.43 C608.54,301.36 609.79,304.68 609.65,308.55 C609.536667,311.89 609.63,314.72 609.93,317.04 C610.15,318.7 611.086667,319.553333 612.74,319.6 C613.433333,319.62 616.37,319.66 621.55,319.72 C622.349469,319.726249 623.087122,320.155913 623.49,320.85 L625.39,324.14 C625.901345,325.034503 626.85983,325.578923 627.89,325.56 C650.17,325.25 661.72,324.88 681.55,325.34 C689.696667,325.526667 698.776667,325.603333 708.79,325.57 C713.25,325.55 714.72,326.63 717.73,329.57 C720.603333,332.383333 722.063333,335.78 722.11,339.76 C722.363333,359.746667 722.42,384.606667 722.28,414.34 C722.26,418.026667 721.97,420.596667 721.41,422.05 C720.05,425.6 716.72,429.3 712.63,429.4 C685.31,430.06 659.03,429.9 627.23,429.77 C626.82137,429.763661 626.4391,429.981555 626.23,430.34 L624.06,434.1 C623.59231,434.916293 622.739791,435.436858 621.8,435.48 C616.58,435.72 613.69,435.56 611.13,436.51 C610.529652,436.733746 610.120483,437.296353 610.09,437.94 C610.036667,439.3 610.103333,442.04 610.29,446.16 C610.47,449.91 609.58,452.62 606.76,454.47 C606.360985,454.731684 605.896996,454.877113 605.42,454.89 C597.226667,455.043333 588.09,455.2 578.01,455.36 C576.67,455.38 575.273333,455.42 573.82,455.48 C535.046667,457.08 495.273333,457.276667 454.5,456.07 C450.1,455.936667 442.683333,455.503333 432.25,454.77 C428.43,454.5 422.18,453.37 418.75,450.78 C412.62,446.15 409.26,440.7 404.26,433.51 C401.56,429.62 394.55,424.22 388.84,422.41 C387.246667,421.903333 384.986667,420.963333 382.06,419.59 C381.709666,419.42484 381.333242,419.326495 380.95,419.3 C352.243333,417.253333 331.976667,415.613333 320.15,414.38 C315.48,413.89 311.85,410.48 311.62,405.61 C311.56,404.396667 311.46,402.893333 311.32,401.1 C311.28389,400.72472 310.971868,400.438701 310.6,400.44 L1,401.28 Z M318.81,395.21 C318.57,397.923333 318.633333,400.763333 319,403.73 C319.57,408.32 323.99,408.93 327.96,408.89 C330.39,408.87 332.87,408.94 332.96,406.49 C333.086667,402.976667 333.156667,399.463333 333.17,395.95 C333.13,391.39 333.43,384.18 338.51,382.05 C338.935753,381.875661 339.407287,381.857935 339.84,382 C341.72,382.62 343.27,383.583333 344.49,384.89 C346.61,387.15 346.03,393.79 345.76,396.95 C345.433333,402.376667 345.506667,405.976667 345.98,407.75 C346.893333,411.21 349.006667,412.32 352.32,411.08 C357.66,409.09 356.68,401.7 356.47,397.07 L356.66,386.54 C356.678534,385.602452 357.141492,384.724685 357.91,384.17 L358.87,383.48 C359.331267,383.149914 359.937294,383.102097 360.44462,383.35576 C360.951946,383.609423 361.277309,384.122935 361.29,384.69 L361.59,397.7 L361.81,408.52 C361.853698,410.699371 363.654944,412.433574 365.84,412.4 L368.03,412.36 C370.088577,412.327225 371.740166,410.653378 371.74,408.6 L371.77,398.03 C371.76,394.9 371.94,379.5 379.5,384.78 C381.4,386.1 382.426667,387.923333 382.58,390.25 C382.793333,393.403333 382.963333,396.316667 383.09,398.99 L383.16,411.21 C383.166704,412.228201 383.871196,413.106744 384.86,413.33 C388.12,414.07 391.48,414.92 394.55,416.51 C402.443333,420.616667 408.673333,425.913333 413.24,432.4 C418.23,439.47 421.22,446.15 430.51,446.7 C438.8,447.19 447.64,447.89 455.67,448.1 C491.61,449.046667 529.553333,449.163333 569.5,448.45 C584.48,448.176667 594.383333,448.01 599.21,447.95 C601.13,447.93 602.22,447.12 602.32,445.07 C602.453333,442.45 602.46,439.876667 602.34,437.35 C601.966667,427.656667 601.76,419.623333 601.72,413.25 C601.6,392.443333 601.57,364.36 601.63,329 L601.65,315.5 L601.64,310.6 C601.634856,309.708013 600.92174,308.981609 600.03,308.96 C579.35,308.5 561.76,307.78 541.65,307.78 C522.323333,307.78 498.443333,307.766667 470.01,307.739891 C457.87,307.73 446.68,308.41 433.05,309.04 C426.93,309.32 422.3,311.713333 419.16,316.22 C414.873333,322.366667 410.876667,327.426667 407.17,331.4 C401.42,337.54 392.95,341.03 384.76,342.89 C383.785382,343.112512 383.100648,343.985131 383.12,344.98 C383.206667,350.046667 383.256667,355.903333 383.27,362.55 C383.28,366.78 382.48,368.68 379.55,371.21 C376.92,373.48 373.72,371.35 372.96,368.75 C371.21,362.83 372.45,352.01 372.32,347.81 C372.276875,346.349235 371.29449,345.083859 369.89,344.68 C369.216667,344.48 367.916667,344.403333 365.99,344.45 C363.24,344.52 361.76,345.85 361.73,348.53 C361.676667,353.05 361.98,359.226667 362.64,367.06 C362.8,368.906667 362.543333,370.506667 361.87,371.86 C361.456667,372.686667 361.046667,373.176667 360.64,373.33 C359.339945,373.800578 357.84053,373.111192 357.16,371.73 C356.633333,370.663333 356.363333,369.16 356.35,367.22 C356.316667,361.133333 356.356667,355.063333 356.47,349.01 C356.56,344.45 350.11,345.18 347.35,345.81 C346.320738,346.036487 345.600872,346.96684 345.64,348.02 L346.34,367.25 C346.346681,367.487686 346.3059,367.725572 346.22,367.95 C345.326667,370.35 343.92,372.216667 342,373.55 C338.12,376.25 334.35,370.29 333.24,367.24 C332.686667,365.72 332.453333,363.52 332.54,360.64 C332.606667,358.42 332.63,354.856667 332.61,349.95 C332.607414,349.294965 332.342629,348.668244 331.874772,348.209781 C331.406916,347.751319 330.774953,347.4993 330.12,347.51 L322.42,347.63 C322.141862,347.636278 321.874368,347.734828 321.66,347.91 C319.606667,349.583333 318.623333,351.866667 318.71,354.76 C319.116667,368.1 319.15,381.583333 318.81,395.21 Z M619.3359,329.6402 C619.334178,328.645638 618.937437,327.692494 618.232956,326.990452 C617.528475,326.288409 616.573962,325.894975 615.5794,325.896694 L611.7594,325.9034 C610.76482,325.905122 609.811662,326.301877 609.109616,327.006379 C608.407571,327.710882 608.014148,328.66542 608.015894,329.66 L608.1841,426.0198 C608.185822,427.014362 608.582563,427.967506 609.287044,428.669548 C609.991525,429.371591 610.946038,429.765025 611.9406,429.763306 L615.7606,429.7566 C616.75518,429.754878 617.708338,429.358123 618.410384,428.653621 C619.112429,427.949118 619.505852,426.99458 619.504106,426 L619.3359,329.6402 Z M679.7,332.03 C663.053333,332.183333 646.403333,332.146667 629.75,331.92 C628.25,331.9 626.96,332.06 625.88,332.4 C625.101921,332.642251 624.573995,333.365104 624.579949,334.18 L624.76,413.69 C624.66,416.003333 624.64,418.44 624.7,421 C624.746667,423.093333 625.706667,424.13 627.58,424.11 C648.66,423.856667 662.133333,423.773333 668,423.86 C685.94,424.11 697.19,424.6 705.78,423.94 C706.545055,423.881845 707.132421,423.241879 707.12,422.48 L706.98,408.29 C706.5,405.8 706.03,403.68 706,401.2 C705.733333,379.986667 705.716667,361.503333 705.95,345.75 C705.996667,342.603333 706.546667,339.286667 707.6,335.8 C708.22,333.14 707.59,331.363333 705.71,330.47 C705.494475,330.365379 705.259492,330.320456 705.03,330.34 L679.7,332.03 Z M712.34,419.77 C712.340602,420.489925 712.786986,421.13423 713.460799,421.387744 C714.134612,421.641258 714.894996,421.450985 715.37,420.91 L716.69,419.4 C716.963213,419.08327 717.11242,418.678279 717.11,418.26 L717.2,338.75 C717.199328,338.325678 717.042735,337.916402 716.76,337.6 L715.46,336.13 C714.983793,335.587624 714.220903,335.397887 713.546105,335.653999 C712.871307,335.91011 712.426421,336.558244 712.43,337.28 L712.34,419.77 Z M337.9067,347.858315 C337.654965,347.868955 337.456027,348.89278 337.35365,350.704646 C337.251274,352.516511 337.253846,354.967997 337.3608,357.5198 C337.467756,360.071722 337.670343,362.514925 337.923989,364.311882 C338.177635,366.108839 338.461561,367.112338 338.7133,367.101685 C338.965035,367.091045 339.163973,366.06722 339.26635,364.255354 C339.368726,362.443489 339.366154,359.992003 339.2592,357.4402 C339.152244,354.888278 338.949657,352.445075 338.696011,350.648118 C338.442365,348.851161 338.158439,347.847662 337.9067,347.858315 L337.9067,347.858315 Z M340.2867,390.3741 C340.282407,390.066474 340.156084,389.773154 339.935522,389.558668 C339.71496,389.344182 339.418226,389.2261 339.1106,389.230287 L339.0506,389.2313 C338.410041,389.24024 337.898001,389.766741 337.9069,390.4073 L338.1133,405.1859 C338.117593,405.493526 338.243916,405.786846 338.464478,406.001332 C338.68504,406.215818 338.981774,406.3339 339.2894,406.329713 L339.3494,406.3287 C339.989959,406.31976 340.501999,405.793259 340.4931,405.1527 L340.2867,390.3741 Z" id="Shape" fill="#010101" fill-rule="nonzero"></path>
        <path d="M601.65,315.5 C597.97,315.246667 594.26,315.186667 590.52,315.32 C585.133333,315.513333 581.423333,315.593333 579.39,315.56 C558.243333,315.233333 536.163333,315.433333 513.15,316.16 C487.503333,316.966667 465.81,318.066667 448.07,319.46 C433.86,320.57 424.79,320.89 416.94,331.24 C414.65,334.25 413.72,336.99 413.74,340.82 C413.743243,341.277189 413.984612,341.699612 414.376839,341.934539 C414.769065,342.169466 415.255397,342.182907 415.66,341.97 C417.086667,341.216667 419.226667,339.833333 422.08,337.82 C430.11,332.18 438.71,331.51 448.38,331.12 C461.69,330.58 472.7,329.96 484.6,329.89 C500.08,329.8 518.37,330.01 535.84,329.48 C547.353333,329.133333 554.423333,329.01 557.05,329.11 C571.843333,329.67 586.703333,329.633333 601.63,329 C601.57,364.36 601.6,392.443333 601.72,413.25 C601.76,419.623333 601.966667,427.656667 602.34,437.35 C600.653333,437.176667 599.04,437.1 597.5,437.12 C589.6,437.213333 575.766667,437.57 556,438.19 C524.373333,439.183333 494.71,438.866667 467.01,437.24 C458.3,436.72 447.33,437.15 438.06,435.69 C434.613333,435.15 431.37,433.816667 428.33,431.69 C426.73,430.57 424.533333,427.846667 421.74,423.52 C418.413333,418.366667 416.27,415.27 415.31,414.23 C409.51,407.976667 402.81,403.673333 395.21,401.32 C391.59,400.193333 387.55,399.416667 383.09,398.99 C382.963333,396.316667 382.793333,393.403333 382.58,390.25 C382.426667,387.923333 381.4,386.1 379.5,384.78 C371.94,379.5 371.76,394.9 371.77,398.03 L361.59,397.7 L361.29,384.69 C361.277309,384.122935 360.951946,383.609423 360.44462,383.35576 C359.937294,383.102097 359.331267,383.149914 358.87,383.48 L357.91,384.17 C357.141492,384.724685 356.678534,385.602452 356.66,386.54 L356.47,397.07 L345.76,396.95 C346.03,393.79 346.61,387.15 344.49,384.89 C343.27,383.583333 341.72,382.62 339.84,382 C339.407287,381.857935 338.935753,381.875661 338.51,382.05 C333.43,384.18 333.13,391.39 333.17,395.95 C328.27,396.29 323.483333,396.043333 318.81,395.21 C319.15,381.583333 319.116667,368.1 318.71,354.76 C318.623333,351.866667 319.606667,349.583333 321.66,347.91 C321.874368,347.734828 322.141862,347.636278 322.42,347.63 L330.12,347.51 C330.774953,347.4993 331.406916,347.751319 331.874772,348.209781 C332.342629,348.668244 332.607414,349.294965 332.61,349.95 C332.63,354.856667 332.606667,358.42 332.54,360.64 C332.453333,363.52 332.686667,365.72 333.24,367.24 C334.35,370.29 338.12,376.25 342,373.55 C343.92,372.216667 345.326667,370.35 346.22,367.95 C346.3059,367.725572 346.346681,367.487686 346.34,367.25 L345.64,348.02 C345.600872,346.96684 346.320738,346.036487 347.35,345.81 C350.11,345.18 356.56,344.45 356.47,349.01 C356.356667,355.063333 356.316667,361.133333 356.35,367.22 C356.363333,369.16 356.633333,370.663333 357.16,371.73 C357.84053,373.111192 359.339945,373.800578 360.64,373.33 C361.046667,373.176667 361.456667,372.686667 361.87,371.86 C362.543333,370.506667 362.8,368.906667 362.64,367.06 C361.98,359.226667 361.676667,353.05 361.73,348.53 C361.76,345.85 363.24,344.52 365.99,344.45 C367.916667,344.403333 369.216667,344.48 369.89,344.68 C371.29449,345.083859 372.276875,346.349235 372.32,347.81 C372.45,352.01 371.21,362.83 372.96,368.75 C373.72,371.35 376.92,373.48 379.55,371.21 C382.48,368.68 383.28,366.78 383.27,362.55 C383.256667,355.903333 383.206667,350.046667 383.12,344.98 C383.100648,343.985131 383.785382,343.112512 384.76,342.89 C392.95,341.03 401.42,337.54 407.17,331.4 C410.876667,327.426667 414.873333,322.366667 419.16,316.22 C422.3,311.713333 426.93,309.32 433.05,309.04 C446.68,308.41 457.87,307.73 470.01,307.739891 C498.443333,307.766667 522.323333,307.78 541.65,307.78 C561.76,307.78 579.35,308.5 600.03,308.96 C600.92174,308.981609 601.634856,309.708013 601.64,310.6 L601.65,315.5 Z M481.17,341.94 C475.34,344.4 472.76,344.88 469.7,348.92 C467.186667,352.253333 465.416667,355.64 464.39,359.08 C463.81,361.033333 463.513333,364.84 463.5,370.5 C463.453333,385.366667 463.45,393.206667 463.49,394.02 C463.76,399.74 468.28,409.17 473.07,412.18 C478.163333,415.38 483.723333,417.033333 489.75,417.14 C516.983333,417.626667 542.833333,417.713333 567.3,417.4 C571.613333,417.346667 574.5,416.903333 575.96,416.07 C578.7,414.503333 580.493333,412.083333 581.34,408.81 C581.406385,408.557709 581.439995,408.298911 581.44,408.04 C581.513333,393.126667 581.473333,375.38 581.32,354.8 C581.3,351.473333 581.043333,349.313333 580.55,348.32 C578.39,343.98 573.87,341.29 569.26,341.319752 C527.866667,341.62 499.79,341.703333 485.03,341.57 C483.083333,341.55 481.796667,341.673333 481.17,341.94 Z" id="Shape" fill="#EEEBE2" fill-rule="nonzero"></path>
        <path d="M601.65,315.5 L601.63,329 C586.703333,329.633333 571.843333,329.67 557.05,329.11 C554.423333,329.01 547.353333,329.133333 535.84,329.48 C518.37,330.01 500.08,329.8 484.6,329.89 C472.7,329.96 461.69,330.58 448.38,331.12 C438.71,331.51 430.11,332.18 422.08,337.82 C419.226667,339.833333 417.086667,341.216667 415.66,341.97 C415.255397,342.182907 414.769065,342.169466 414.376839,341.934539 C413.984612,341.699612 413.743243,341.277189 413.739685,340.82 C413.72,336.99 414.65,334.25 416.94,331.24 C424.79,320.89 433.86,320.57 448.07,319.46 C465.81,318.066667 487.503333,316.966667 513.15,316.16 C536.163333,315.433333 558.243333,315.233333 579.39,315.56 C581.423333,315.593333 585.133333,315.513333 590.52,315.32 C594.26,315.186667 597.97,315.246667 601.65,315.5 Z" id="Path" fill="#F6F7F7" fill-rule="nonzero"></path>
        <rect id="Rectangle" fill="#EEEBE2" fill-rule="nonzero" transform="translate(613.760000, 377.830000) rotate(-0.100000) translate(-613.760000, -377.830000) " x="608.1" y="325.9" width="11.32" height="103.86" rx="3.75"></rect>
        <path d="M707.6,335.8 C707.38,334.173333 706.49,333.323333 704.93,333.25 C696.53,332.863333 688.12,332.456667 679.7,332.03 L705.03,330.34 C705.259492,330.320456 705.494475,330.365379 705.71,330.47 C707.59,331.363333 708.22,333.14 707.6,335.8 Z" id="Path" fill="#8F908F" fill-rule="nonzero"></path>
        <path d="M275.79,334.17 C276.003333,334.316667 276.163333,334.463333 276.27,334.61 C276.309202,334.672976 276.319069,334.748839 276.3,334.82 C276.266667,334.96 276.176667,335.066667 276.03,335.14 C263.576667,335.1 251.123333,334.98 238.67,334.78 C222.79,334.526667 210.336667,334.366667 201.31,334.3 C134.69,333.826667 68.1133333,333.523333 1.58,333.39 C1.39774603,333.39 1.25,333.246731 1.25,333.07 L1.25,332.15 C1.25,331.989837 1.38431458,331.86 1.55,331.86 L275.79,334.17 Z" id="Path" fill="#8F908F" fill-rule="nonzero"></path>
        <path d="M679.7,332.03 C688.12,332.456667 696.53,332.863333 704.93,333.25 C706.49,333.323333 707.38,334.173333 707.6,335.8 C706.546667,339.286667 705.996667,342.603333 705.95,345.75 C705.716667,361.503333 705.733333,379.986667 706,401.2 C706.03,403.68 706.5,405.8 706.98,408.29 C696.7,407.763333 686.53,407.82 676.47,408.46 L676.32,390.92 C676.314787,390.419607 676.109229,389.941959 675.748851,389.592843 C675.388473,389.243727 674.903018,389.051955 674.4,389.06 C669.72,389.14 664.97,389.156667 660.15,389.11 C658.37,389.096667 657.48,389.98 657.48,391.76 C657.473333,397.48 657.516667,403.226667 657.61,409 C655.436667,408.526667 654.06,408.29 653.48,408.29 C646.113333,408.263333 638.71,408.256667 631.27,408.27 C630.216667,408.27 629.14,408.62 628.04,409.32 C627.773288,409.495562 627.567395,409.746821 627.45,410.04 C626.776667,411.686667 625.88,412.903333 624.76,413.69 L624.579949,334.18 C624.573995,333.365104 625.101921,332.642251 625.88,332.4 C626.96,332.06 628.25,331.9 629.75,331.92 C646.403333,332.146667 663.053333,332.183333 679.7,332.03 Z M675.58,345.13 L659.49,345.34 C658.448518,345.350963 657.609999,346.193942 657.61,347.23 L657.61,365.58 C657.61,366.601727 658.438273,367.43 659.46,367.43 L675.09,367.43 C675.417956,367.43 675.732337,367.29905 675.963296,367.066213 C676.194255,366.833376 676.322666,366.517945 676.32,366.19 L676.13,345.44 C684.05,345.7 692.31,345.723333 700.91,345.51 C702.063333,345.483333 702.966667,344.78 703.62,343.4 C703.864067,342.884218 703.826115,342.279232 703.519504,341.797995 C703.212893,341.316758 702.680604,341.02673 702.11,341.03 C692.03,341.076667 683.64,341.256667 676.94,341.57 C673.79,341.71 671.68,341.32 669.23,341.52 C667.13,341.686667 665.196667,341.716667 663.43,341.61 C654.05,341.036667 643.253333,341.023333 631.04,341.57 C630.779322,341.583569 630.524176,341.491503 630.332225,341.314607 C630.140274,341.137711 630.02772,340.890917 630.02,340.63 L630.02,340.61 C630.014608,340.390762 630.096189,340.178511 630.246515,340.020669 C630.396841,339.862826 630.603385,339.772546 630.82,339.77 L702.2,338.61 C702.404567,338.606653 702.594769,338.504176 702.710086,338.335176 C702.825403,338.166177 702.851473,337.951704 702.78,337.76 L702.69,337.53 C702.391382,336.72101 701.612131,336.190798 700.75,336.21 L632.38,337.31 C630.616282,337.340179 629.113367,338.589139 628.77,340.31 L628.62,341.05 C628.456539,341.831321 628.634353,342.645131 629.108457,343.285555 C629.582562,343.925978 630.307544,344.33167 631.1,344.4 C641.726667,345.346667 652.443333,345.353333 663.25,344.42 C667.496667,344.053333 671.606667,344.29 675.58,345.13 Z" id="Shape" fill="#C6C6C6" fill-rule="nonzero"></path>
        <path d="M712.34,419.77 L712.43,337.28 C712.426421,336.558244 712.871307,335.91011 713.546105,335.653999 C714.220903,335.397887 714.983793,335.587624 715.46,336.13 L716.76,337.6 C717.042735,337.916402 717.199328,338.325678 717.2,338.75 L717.11,418.26 C717.11242,418.678279 716.963213,419.08327 716.69,419.4 L715.37,420.91 C714.894996,421.450985 714.134612,421.641258 713.460799,421.387744 C712.786986,421.13423 712.340602,420.489925 712.34,419.77 L712.34,419.77 Z" id="Path" fill="#8F908F" fill-rule="nonzero"></path>
        <path d="M676.13,345.44 C675.943333,345.333333 675.76,345.23 675.58,345.13 C671.606667,344.29 667.496667,344.053333 663.25,344.42 C652.443333,345.353333 641.726667,345.346667 631.1,344.4 C630.307544,344.33167 629.582562,343.925978 629.108457,343.285555 C628.634353,342.645131 628.456539,341.831321 628.62,341.05 L628.77,340.31 C629.113367,338.589139 630.616282,337.340179 632.38,337.31 L700.75,336.21 C701.612131,336.190798 702.391382,336.72101 702.69,337.53 L702.78,337.76 C702.851473,337.951704 702.825403,338.166177 702.710086,338.335176 C702.594769,338.504176 702.404567,338.606653 702.2,338.61 L630.82,339.77 C630.603385,339.772546 630.396841,339.862826 630.246515,340.020669 C630.096189,340.178511 630.014608,340.390762 630.02,340.61 L630.02,340.63 C630.02772,340.890917 630.140274,341.137711 630.332225,341.314607 C630.524176,341.491503 630.779322,341.583569 631.04,341.57 C643.253333,341.023333 654.05,341.036667 663.43,341.61 C665.196667,341.716667 667.13,341.686667 669.23,341.52 C671.68,341.32 673.79,341.71 676.94,341.57 C683.64,341.256667 692.03,341.076667 702.11,341.03 C702.680604,341.02673 703.212893,341.316758 703.519504,341.797995 C703.826115,342.279232 703.864067,342.884218 703.62,343.4 C702.966667,344.78 702.063333,345.483333 700.91,345.51 C692.31,345.723333 684.05,345.7 676.13,345.44 Z" id="Path" fill="#F6F7F7" fill-rule="nonzero"></path>
        <path d="M481.17,341.94 C481.796667,341.673333 483.083333,341.55 485.03,341.57 C499.79,341.703333 527.866667,341.62 569.26,341.319752 C573.87,341.29 578.39,343.98 580.55,348.32 C581.043333,349.313333 581.3,351.473333 581.32,354.8 C581.473333,375.38 581.513333,393.126667 581.44,408.04 C581.439995,408.298911 581.406385,408.557709 581.34,408.81 C580.493333,412.083333 578.7,414.503333 575.96,416.07 C574.5,416.903333 571.613333,417.346667 567.3,417.4 C542.833333,417.713333 516.983333,417.626667 489.75,417.14 C483.723333,417.033333 478.163333,415.38 473.07,412.18 C468.28,409.17 463.76,399.74 463.49,394.02 C463.45,393.206667 463.453333,385.366667 463.5,370.5 C463.513333,364.84 463.81,361.033333 464.39,359.08 C465.416667,355.64 467.186667,352.253333 469.7,348.92 C472.76,344.88 475.34,344.4 481.17,341.94 Z M574.66,413.27 C578.18,410.6 579.41,409.16 579.34,404.32 C579.126667,390.42 579.043333,373.566667 579.09,353.76 C579.103333,350.226667 577.39,347.55 573.95,345.73 C573.740614,345.612041 573.502101,345.553277 573.26,345.56 C547.973333,345.74 521.08,345.553333 492.58,345 C484.82,344.85 479.76,344.33 474.46,349.42 C471.406667,352.353333 469.69,356.053333 469.31,360.52 C468.663333,367.98 468.496667,375.686667 468.81,383.64 C468.916667,386.36 469.033333,388.086667 469.16,388.82 C469.83,392.74 468.7,396.36 469.95,399.93 C471.856667,405.363333 475.42,409.29 480.64,411.71 C482.666667,412.65 486.156667,413.17 491.11,413.27 C519.896667,413.883333 543.526667,414.15 562,414.07 C565.773333,414.05 568.886667,413.703333 571.34,413.03 C571.498229,412.990346 571.658411,412.983529 571.81,413.01 L573.95,413.43 C574.19751,413.481211 574.456079,413.422942 574.66,413.27 L574.66,413.27 Z" id="Shape" fill="#010101" fill-rule="nonzero"></path>
        <path d="M573.95,413.43 L571.81,413.01 C571.658411,412.983529 571.498229,412.990346 571.34,413.03 C568.886667,413.703333 565.773333,414.05 562,414.07 C543.526667,414.15 519.896667,413.883333 491.11,413.27 C486.156667,413.17 482.666667,412.65 480.64,411.71 C475.42,409.29 471.856667,405.363333 469.95,399.93 C468.7,396.36 469.83,392.74 469.16,388.82 C469.033333,388.086667 468.916667,386.36 468.81,383.64 C468.496667,375.686667 468.663333,367.98 469.31,360.52 C469.69,356.053333 471.406667,352.353333 474.46,349.42 C479.76,344.33 484.82,344.85 492.58,345 C521.08,345.553333 547.973333,345.74 573.26,345.56 C573.502101,345.553277 573.740614,345.612041 573.95,345.73 C577.39,347.55 579.103333,350.226667 579.09,353.76 C579.043333,373.566667 579.126667,390.42 579.34,404.32 C579.41,409.16 578.18,410.6 574.66,413.27 C574.456079,413.422942 574.19751,413.481211 573.95,413.43 L573.95,413.43 Z" id="Path" fill="#8F908F" fill-rule="nonzero"></path>
        <path d="M675.58,345.13 C675.76,345.23 675.943333,345.333333 676.13,345.44 L676.320041,366.19 C676.322666,366.517945 676.194255,366.833376 675.963296,367.066213 C675.732337,367.29905 675.417956,367.43 675.09,367.43 L659.46,367.43 C658.438273,367.43 657.61,366.601727 657.61,365.58 L657.61,347.23 C657.61,346.193942 658.448518,345.350963 659.49,345.34 L675.58,345.13 Z" id="Path" fill="#010101" fill-rule="nonzero"></path>
        <ellipse id="Oval" fill="#C6C6C6" fill-rule="nonzero" transform="translate(338.310000, 357.480000) rotate(-92.400000) translate(-338.310000, -357.480000) " cx="338.31" cy="357.48" rx="9.63" ry="1"></ellipse>
        <path d="M311.03,386.07 C307.42,386.12 303.48,385.58 300.31,385.6 C288.13,385.66 274.84,386 263.33,385.84 C230.04,385.38 199.3,385.89 165.24,385.29 C159.173333,385.183333 141.293333,385.02 111.6,384.8 C107.51,384.77 99.99,384.55 94.2,384.29 C91.1733333,384.15 86.8233333,384.15 81.15,384.29 C71.9966667,384.51 62.9466667,384.666667 54,384.76 C52.0466667,384.773333 43.2133333,385.1 27.5,385.74 C18.6733333,386.1 9.84,386.303333 1,386.35 L1,361.43 C17.3533333,361.283333 33.71,361.293333 50.07,361.46 C51.3633333,361.473333 54.6433333,361.663333 59.91,362.03 C62.6833333,362.223333 65.9666667,362.323333 69.76,362.33 C165.026667,362.503333 233.273333,362.616667 274.5,362.67 C286.2,362.683333 297.946667,362.68 309.74,362.66 C310.485584,362.66 311.09,363.264416 311.09,364.01 L311.03,386.07 Z" id="Path" fill="#EEEBE2" fill-rule="nonzero"></path>
        <path d="M311.03,386.07 L311.090049,392.22 C311.090049,392.539091 310.96537,392.845528 310.736915,393.068319 C310.508459,393.29111 310.198918,393.410923 309.88,393.4 C292.11,392.88 275.24,394.18 256.52,394.24 C215.16,394.373333 168.1,394.406667 115.34,394.34 C97.4066667,394.32 78.35,394.166667 58.17,393.88 C39.1166667,393.613333 20.06,393.366667 1,393.14 L1,386.35 C9.84,386.303333 18.6733333,386.1 27.5,385.74 C43.2133333,385.1 52.0466667,384.773333 54,384.76 C62.9466667,384.666667 71.9966667,384.51 81.15,384.29 C86.8233333,384.15 91.1733333,384.15 94.2,384.29 C99.99,384.55 107.51,384.77 111.6,384.8 C141.293333,385.02 159.173333,385.183333 165.24,385.29 C199.3,385.89 230.04,385.38 263.33,385.84 C274.84,386 288.13,385.66 300.31,385.6 C303.48,385.58 307.42,386.12 311.03,386.07 Z" id="Path" fill="#C6C6C6" fill-rule="nonzero"></path>
        <rect id="Rectangle" fill="#8F908F" fill-rule="nonzero" transform="translate(339.200000, 397.780000) rotate(-0.800000) translate(-339.200000, -397.780000) " x="338.01" y="389.23" width="2.38" height="17.1" rx="1.16"></rect>
        <path d="M676.47,408.46 C676.616667,410.4 675.713333,411.386667 673.76,411.42 C669.253333,411.493333 664.75,411.526667 660.25,411.52 C658.43,411.513333 657.55,410.673333 657.61,409 C657.516667,403.226667 657.473333,397.48 657.48,391.76 C657.48,389.98 658.37,389.096667 660.15,389.11 C664.97,389.156667 669.72,389.14 674.4,389.06 C674.903018,389.051955 675.388473,389.243727 675.748851,389.592843 C676.109229,389.941959 676.314787,390.419607 676.32,390.92 L676.47,408.46 Z M671.3748,393.2579 C671.368197,392.987458 671.254432,392.730716 671.058531,392.544155 C670.86263,392.357594 670.600642,392.256495 670.3302,392.2631 L662.3726,392.4576 C662.102158,392.464203 661.845416,392.577968 661.658855,392.773869 C661.472294,392.96977 661.371195,393.231758 661.3778,393.5022 L661.3852,393.8021 C661.391803,394.072542 661.505568,394.329284 661.701469,394.515845 C661.89737,394.702406 662.159358,394.803505 662.4298,394.7969 L670.3874,394.6024 C670.657842,394.595797 670.914584,394.482032 671.101145,394.286131 C671.287706,394.09023 671.388805,393.828242 671.3822,393.5578 L671.3748,393.2579 Z" id="Shape" fill="#010101" fill-rule="nonzero"></path>
        <rect id="Rectangle" fill="#C6C6C6" fill-rule="nonzero" transform="translate(666.380000, 393.530000) rotate(-1.400000) translate(-666.380000, -393.530000) " x="661.38" y="392.36" width="10" height="2.34" rx="1.02"></rect>
        <path d="M333.17,395.95 C333.156667,399.463333 333.086667,402.976667 332.96,406.49 C332.87,408.94 330.39,408.87 327.96,408.89 C323.99,408.93 319.57,408.32 319,403.73 C318.633333,400.763333 318.57,397.923333 318.81,395.21 C323.483333,396.043333 328.27,396.29 333.17,395.95 Z" id="Path" fill="#C6C6C6" fill-rule="nonzero"></path>
        <path d="M356.47,397.07 C356.68,401.7 357.66,409.09 352.32,411.08 C349.006667,412.32 346.893333,411.21 345.98,407.75 C345.506667,405.976667 345.433333,402.376667 345.76,396.95 L356.47,397.07 Z" id="Path" fill="#C6C6C6" fill-rule="nonzero"></path>
        <path d="M371.77,398.03 L371.74,408.6 C371.740166,410.653378 370.088577,412.327225 368.03,412.36 L365.84,412.4 C363.654944,412.433574 361.853698,410.699371 361.81,408.52 L361.59,397.7 L371.77,398.03 Z" id="Path" fill="#C6C6C6" fill-rule="nonzero"></path>
        <path d="M602.34,437.35 C602.46,439.876667 602.453333,442.45 602.32,445.07 C602.22,447.12 601.13,447.93 599.21,447.95 C594.383333,448.01 584.48,448.176667 569.5,448.45 C529.553333,449.163333 491.61,449.046667 455.67,448.1 C447.64,447.89 438.8,447.19 430.51,446.7 C421.22,446.15 418.23,439.47 413.24,432.4 C408.673333,425.913333 402.443333,420.616667 394.55,416.51 C391.48,414.92 388.12,414.07 384.86,413.33 C383.871196,413.106744 383.166704,412.228201 383.16,411.21 L383.09,398.99 C387.55,399.416667 391.59,400.193333 395.21,401.32 C402.81,403.673333 409.51,407.976667 415.31,414.23 C416.27,415.27 418.413333,418.366667 421.74,423.52 C424.533333,427.846667 426.73,430.57 428.33,431.69 C431.37,433.816667 434.613333,435.15 438.06,435.69 C447.33,437.15 458.3,436.72 467.01,437.24 C494.71,438.866667 524.373333,439.183333 556,438.19 C575.766667,437.57 589.6,437.213333 597.5,437.12 C599.04,437.1 600.653333,437.176667 602.34,437.35 Z" id="Path" fill="#C6C6C6" fill-rule="nonzero"></path>
        <path d="M706.98,408.29 L707.120193,422.48 C707.132421,423.241879 706.545055,423.881845 705.78,423.94 C697.19,424.6 685.94,424.11 668,423.86 C662.133333,423.773333 648.66,423.856667 627.58,424.11 C625.706667,424.13 624.746667,423.093333 624.7,421 C624.64,418.44 624.66,416.003333 624.76,413.69 C625.88,412.903333 626.776667,411.686667 627.45,410.04 C627.567395,409.746821 627.773288,409.495562 628.04,409.32 C629.14,408.62 630.216667,408.27 631.27,408.27 C638.71,408.256667 646.113333,408.263333 653.48,408.29 C654.06,408.29 655.436667,408.526667 657.61,409 C657.55,410.673333 658.43,411.513333 660.25,411.52 C664.75,411.526667 669.253333,411.493333 673.76,411.42 C675.713333,411.386667 676.616667,410.4 676.47,408.46 C686.53,407.82 696.7,407.763333 706.98,408.29 Z" id="Path" fill="#8F908F" fill-rule="nonzero"></path>
        <path d="M188.33,421.74 C186.623333,422.486667 184.523333,422.843333 182.03,422.81 L1.64,422.79 C1.46879173,422.79 1.32999995,422.651208 1.32999995,422.48 L1.32999995,421.93 C1.32999995,421.848672 1.36293086,421.77081 1.42137353,421.714253 C1.47981619,421.657695 1.55871693,421.627289 1.64,421.63 C43.0933333,421.956667 68.7133333,422.103333 78.5,422.07 C115.08,421.95 151.69,421.84 188.33,421.74 Z" id="Path" fill="#8F908F" fill-rule="nonzero"></path>
    </g>
</svg>