<?xml version="1.0" encoding="UTF-8"?>
<svg width="1409px" height="756px" viewBox="0 0 1409 756" version="1.1" xmlns="http://www.w3.org/2000/svg" xmlns:xlink="http://www.w3.org/1999/xlink">
    <title>unplugged-cable-right</title>
    <g id="unplugged-cable-right" stroke="none" stroke-width="1" fill="none" fill-rule="evenodd">
        <path d="M1169.03,334.31 C1171.89667,335.19 1175.07,335.576667 1178.55,335.47 L1143.56,335.58004 C1142.63774,335.585236 1141.78938,335.076223 1141.36,334.26 C1136.7,325.41 1125.86,320.45 1116.17,319.49 C1099.49667,317.836667 1080.78667,316.93 1060.04,316.77 C1052.44,316.71 1046.59333,313.716667 1042.5,307.79 C1039.94,304.083333 1038.05333,301.45 1036.84,299.89 C1030.03333,291.116667 1021.20667,285.786667 1010.36,283.9 C1005.54,283.06 999.413333,282.553333 991.98,282.38 C968.566667,281.833333 951.16,281.43 939.76,281.17 C920.31,280.73 889.83,281.83 864.08,281.87 C853.84,281.883333 844.576667,282.123333 836.29,282.59 C825.28,283.2 815.88,287.53 810.76,297.46 C809.57,299.78 805.28,300.72 803.43,301.86 C800.97,303.373333 798.92,305.266667 797.28,307.54 C793.893333,312.22 791.856667,317.766667 791.17,324.18 C791.003333,323.28 790.686667,322.94 790.22,323.16 C791.166667,311.193333 796.986667,302.876667 807.68,298.21 C809.34,297.49 811.22,293.42 812.36,292.11 C821.84,281.21 834.76,280.63 848.25,280.44 C877.283333,280.026667 915.343333,279.933333 962.43,280.16 C974.73,280.22 986.753333,280.523333 998.5,281.07 C1003.8,281.316667 1008.99333,282.01 1014.08,283.15 C1023.86667,285.343333 1031.68,290.27 1037.52,297.93 C1037.64,298.09 1039.52333,300.886667 1043.17,306.32 C1046.43667,311.2 1051.21667,314.006667 1057.51,314.74 C1061.82333,315.246667 1068.84,315.606667 1078.56,315.82 C1092.53,316.12 1103.64,316.74 1116.3,317.94 C1126.45,318.91 1137.37,323.79 1142.27,333.04 C1142.65722,333.765792 1143.41063,334.219372 1144.23,334.22 L1169.03,334.31 Z" id="Path" fill="#C6C6C6" fill-rule="nonzero"></path>
        <path d="M1409,354.34 L1409,361.51 C1399.52667,361.263333 1390.06,361.31 1380.6,361.65 C1366.40667,362.15 1357.16667,362.4 1352.88,362.4 C1310.74,362.386667 1265.06,362.37 1215.84,362.35 C1211.67,362.35 1207.48,363.62 1203.7,363.61 C1167.98667,363.516667 1148.77333,363.506667 1146.06,363.58 C1140.27,363.74 1134.13,362.19 1127.88,362.5 C1126.76001,362.558154 1125.87907,363.478537 1125.87,364.6 L1125.68,387.22 C1125.25333,389.166667 1125.3,391.173333 1125.82,393.24 C1125.95342,393.784996 1126.44445,394.168745 1127.01,394.17 L1409,393.54 L1409,401.35 L1127.58,400.49 C1126.85318,400.49155 1126.24701,401.041433 1126.18,401.76 C1125.9,404.54 1125.94,408.44 1125.05,410.41 C1122.56,415.9 1117.92,417.01 1112.25,417.31 C1096.57667,418.13 1078.4,418.89 1057.72,419.59 C1050.81,419.82 1046.11,420.73 1040.3,423.07 C1033.63,425.76 1028.05,433.64 1024.46,439.58 C1021.44667,444.586667 1017.52333,448.606667 1012.69,451.64 C1011.47,452.406667 1008.82333,452.953333 1004.75,453.28 C999.603333,453.7 994.46,454.02 989.32,454.24 C961.826667,455.4 934.306667,455.816667 906.76,455.49 C871.06,455.07 849.323333,454.78 841.55,454.62 C838.73,454.56 836.173333,454.39 833.88,454.11 C829.82,453.61 827.4,448.25 827.28,444.98 C827.18,442.193333 827.106667,440.383333 827.06,439.55 C827.003033,438.513361 826.162705,437.694803 825.13,437.67 C824.07,437.643333 820.953333,437.596667 815.78,437.53 C811.19,437.48 811.24,432.94 811.27,428.77 C811.61,386.123333 811.533333,351.033333 811.038379,323.5 C810.97,319.38 813.17,318.46 816.98,318.61 C820.326667,318.736667 823.033333,318.75 825.1,318.65 C825.780171,318.623014 826.315938,318.060681 826.31,317.38 C826.31,313.03 826.35,303.62 832.73,303.19 C834.383333,303.076667 837.473333,302.99 842,302.93 C864.633333,302.623333 888.05,302.416667 912.25,302.31 C945.34,302.16 974.87,302.27 1002.44,303.28 C1005.66667,303.4 1008.64333,303.853333 1011.37,304.64 C1017.34,306.38 1023.19,314.46 1026.92,319.91 C1030.64,325.343333 1035.24333,329.923333 1040.73,333.65 C1044.87,336.47 1051.78,337.12 1056.99,337.24 C1070.90333,337.573333 1085.29667,338.226667 1100.17,339.2 C1102.33,339.34 1104.72,339.42 1107.34,339.44 C1113.4,339.49 1118.57,339.48 1122.46,342.79 C1125.19,345.12 1125.38,351.14 1125.72,355.26 C1125.78828,356.061285 1126.46116,356.672996 1127.26,356.66 C1146.12667,356.486667 1166.62333,356.426667 1188.75,356.48 C1207.83,356.53 1229.45,355.6 1246.39,355.39 C1300.59,354.743333 1354.79333,354.393333 1409,354.34 Z M832.93,319.53 L833.25,329.79 L833.23,425.76 C833.196667,431.706667 833.146667,437.616667 833.08,443.49 C833.06,445.416667 833.95,446.39 835.75,446.41 C887.843333,446.95 938.593333,447.086667 988,446.82 C990.273333,446.813333 995.493333,446.48 1003.66,445.82 C1008.08,445.46 1011.39,444.25 1013.64,441.13 C1019.56,432.923333 1023.03,428.223333 1024.05,427.03 C1031.82333,417.903333 1041.95667,413.246667 1054.45,413.06 C1055.32589,413.049059 1056.03014,412.331432 1056.03,411.45 L1056.03,399.19 C1056.16,394.08 1055.06,387.63 1060.27,384.51 C1060.55567,384.340988 1060.88842,384.267432 1061.22,384.3 C1064.06,384.56 1065.75,385.97 1066.29,388.53 C1066.90333,391.41 1067.1,395.306667 1066.88,400.22 C1066.96,402.886667 1066.91667,405.56 1066.75,408.24 C1066.58,410.89 1068.63,412.87 1071.46,412.72 C1073.88,412.59 1076.46,412.46 1076.34,409.75 C1076.15333,405.683333 1076.01,401.986667 1075.91,398.66 C1075.79,394.493333 1075.75333,390.713333 1075.8,387.32 C1075.81333,386.033333 1076.14,384.936667 1076.78,384.03 C1077.27196,383.342554 1078.21526,383.154768 1078.94,383.6 C1080.72,384.693333 1081.62333,386.24 1081.65,388.24 C1081.69667,391.68 1081.73667,395.07 1081.77,398.41 C1081.67667,400.703333 1081.64667,402.966667 1081.68,405.2 C1081.73,408.22 1081.39,410.22 1083.81,411.64 C1085.46,412.6 1089.17,412 1091.03,411.54 C1091.69379,411.375936 1092.16262,410.783727 1092.17,410.1 L1092.26,398.49 C1092.00667,394.15 1091.98667,390.9 1092.2,388.74 C1092.52,385.45 1095.99,381.26 1099.72,382.89 C1104.55,384.99 1105.02,392.35 1104.72,397.02 L1104.74,410.21 C1104.74111,410.753838 1105.11662,411.221136 1105.64,411.33 C1110.58,412.4 1117.89,411.06 1119.01,404.74 C1119.08333,404.353333 1119.14,402.363333 1119.18,398.77 C1119.2072,396.096667 1119.19,393.423333 1119.13,390.75 L1119.06,366.2 C1119.30667,359.24 1119.24333,354.48 1118.87,351.92 C1117.95,345.61 1110.56,346.13 1106.06,346.42 C1105.3844,346.456989 1104.85427,347.013398 1104.85,347.69 L1104.63,364.95 C1104.37,369.11 1102.26,373.98 1097.38,373.94 C1097.05044,373.940026 1096.72303,373.868406 1096.42,373.73 C1093.56,372.436667 1092.04,370.213333 1091.86,367.06 C1092.28,360.266667 1092.21,353.586667 1091.65,347.02 C1091.58752,346.294127 1091.01856,345.712616 1090.29,345.63 C1087.77,345.35 1083.57,344.69 1082.14,346.91 C1081.8,347.443333 1081.61333,348.52 1081.58,350.14 C1081.48667,355.153333 1081.42,360.226667 1081.38,365.36 C1081.39,367.6 1081.62,371.16 1079.64,372.74 C1078.88903,373.344574 1077.82927,373.291806 1077.23,372.62 C1076.49,371.786667 1076.12,370.663333 1076.12,369.25 C1076.13333,364.87 1076.19,359.12 1076.29,352 C1076.31667,349.846667 1075.97,347.833333 1075.25,345.96 C1075.07571,345.503293 1074.63042,345.201132 1074.13,345.2 L1069.48,345.2 C1068.24041,345.19778 1067.21416,346.162628 1067.14,347.4 C1066.92667,351.026667 1066.76667,356.966667 1066.66,365.22 C1066.6,370.22 1062.75,376.03 1057.9,370.16 C1056.17333,368.066667 1055.48,365.52 1055.82,362.52 L1055.87,350.96 L1055.61,345.04 C1055.59921,344.716465 1055.33371,344.45982 1055.01,344.46 C1050.29,344.44 1045.85667,343.71 1041.71,342.27 C1033.48,339.4 1027.85,334.44 1022.35,326.75 C1021.98333,326.23 1019.70333,323.223333 1015.51,317.73 C1012.73667,314.09 1009.17667,311.913333 1004.83,311.2 C1000.25667,310.453333 996.07,309.996667 992.27,309.83 C972.23,308.963333 944.473333,308.593333 909,308.72 C882.65,308.81 861.09,309.88 838.25,309.89 C835.63,309.89 833.37,310.45 833.07,313.26 C832.883333,314.92 832.836667,317.01 832.93,319.53 Z M827.8,328.96 C827.8,327.148506 826.331494,325.68 824.52,325.68 L820.84,325.68 C819.97009,325.68 819.135809,326.02557 818.52069,326.64069 C817.90557,327.255809 817.56,328.09009 817.56,328.96 L817.56,428.24 C817.56,429.10991 817.90557,429.944191 818.52069,430.55931 C819.135809,431.17443 819.97009,431.52 820.84,431.52 L824.52,431.52 C826.331494,431.52 827.8,430.051494 827.8,428.24 L827.8,328.96 Z M1097.8,366.99 L1099.46,367.02 C1099.69363,367.02 1099.88457,366.833568 1099.89,366.6 L1099.97,362.65 C1100.04478,358.747952 1100.00458,355.004726 1099.85826,352.245388 C1099.71195,349.486049 1099.47153,347.937117 1099.19,347.94 L1098.79,347.93 C1098.20534,347.933102 1097.60589,354.495773 1097.45,362.6 L1097.38,366.55 C1097.37732,366.664052 1097.42007,366.774495 1097.49884,366.857018 C1097.57761,366.939541 1097.68595,366.987378 1097.8,366.99 Z M1100.1272,391.4276 C1100.12659,391.07221 1099.98483,390.731618 1099.7331,390.48075 C1099.48137,390.229882 1099.14029,390.089289 1098.7849,390.089898 L1098.7049,390.0901 C1098.34951,390.090709 1098.00892,390.232472 1097.75805,390.484203 C1097.50718,390.735933 1097.36659,391.07701 1097.3672,391.4324 L1097.3928,406.1124 C1097.39341,406.46779 1097.53517,406.808382 1097.7869,407.05925 C1098.03863,407.310118 1098.37971,407.450711 1098.7351,407.450102 L1098.8151,407.4499 C1099.17049,407.449291 1099.51108,407.307528 1099.76195,407.055797 C1100.01282,406.804067 1100.15341,406.46299 1100.1528,406.1076 L1100.1272,391.4276 Z" id="Shape" fill="#010101" fill-rule="nonzero"></path>
        <path d="M1055.87,350.96 C1054.01,349.58 1052.38667,348.783333 1051,348.57 C1040.84,347.03 1031.28,345.87 1024.7,336.7 C1018.94,328.66 1012.42,322.63 1002.47,320.7 C996.39,319.526667 989.076667,318.91 980.53,318.85 C968.036667,318.77 947.36,318.53 918.5,318.13 C893.62,317.79 867.693333,318.036667 840.72,318.87 C839.64,318.903333 837.043333,319.123333 832.93,319.53 C832.836667,317.01 832.883333,314.92 833.07,313.26 C833.37,310.45 835.63,309.89 838.25,309.89 C861.09,309.88 882.65,308.81 909,308.72 C944.473333,308.593333 972.23,308.963333 992.27,309.83 C996.07,309.996667 1000.25667,310.453333 1004.83,311.2 C1009.17667,311.913333 1012.73667,314.09 1015.51,317.73 C1019.70333,323.223333 1021.98333,326.23 1022.35,326.75 C1027.85,334.44 1033.48,339.4 1041.71,342.27 C1045.85667,343.71 1050.29,344.44 1055.01,344.46 C1055.33371,344.45982 1055.59921,344.716465 1055.61,345.04 L1055.87,350.96 Z" id="Path" fill="#EEEBE2" fill-rule="nonzero"></path>
        <path d="M1055.87,350.96 L1055.82,362.52 C1040.45,361.31 1029.44,354.59 1019.19,343.78 C1016.46333,340.9 1014.26,339.02 1012.58,338.14 C1007.77,335.6 1002.55,334.56 997.48,334.22 C994.8,334.04 988.123333,333.756667 977.45,333.37 C956.4,332.61 937.19,332.81 894,332.63 C883.686667,332.59 871.6,332.683333 857.74,332.91 C852.22,333.003333 846.703333,332.876667 841.19,332.53 C838.296667,332.343333 835.65,331.43 833.25,329.79 L832.93,319.53 C837.043333,319.123333 839.64,318.903333 840.72,318.87 C867.693333,318.036667 893.62,317.79 918.5,318.13 C947.36,318.53 968.036667,318.77 980.53,318.85 C989.076667,318.91 996.39,319.526667 1002.47,320.7 C1012.42,322.63 1018.94,328.66 1024.7,336.7 C1031.28,345.87 1040.84,347.03 1051,348.57 C1052.38667,348.783333 1054.01,349.58 1055.87,350.96 Z" id="Path" fill="#F6F7F7" fill-rule="nonzero"></path>
        <path d="M791.17,324.18 L791.1,430.45 C791.206667,432.943333 790.926667,434.18 790.26,434.160239 C790.006667,432.353333 789.886667,430.55 789.9,428.75 C790.046667,394.83 790.143333,360.91 790.19,326.99 C790.19,325.683333 790.2,324.406667 790.22,323.16 C790.686667,322.94 791.003333,323.28 791.17,324.18 Z" id="Path" fill="#8F908F" fill-rule="nonzero"></path>
        <rect id="Rectangle" fill="#8F908F" fill-rule="nonzero" x="817.56" y="325.68" width="10.24" height="105.84" rx="3.28"></rect>
        <path d="M1055.82,362.52 C1055.48,365.52 1056.17333,368.066667 1057.9,370.16 C1062.75,376.03 1066.6,370.22 1066.66,365.22 C1066.76667,356.966667 1066.92667,351.026667 1067.14,347.4 C1067.21416,346.162628 1068.24041,345.19778 1069.48,345.2 L1074.13,345.2 C1074.63042,345.201132 1075.07571,345.503293 1075.25,345.96 C1075.97,347.833333 1076.31667,349.846667 1076.29,352 C1076.19,359.12 1076.13333,364.87 1076.12,369.25 C1076.12,370.663333 1076.49,371.786667 1077.23,372.62 C1077.82927,373.291806 1078.88903,373.344574 1079.64,372.74 C1081.62,371.16 1081.39,367.6 1081.38,365.36 C1084.6,366.06 1087.90333,365.99 1091.29,365.15 C1091.42145,365.119247 1091.55973,365.149144 1091.6651,365.2311 C1091.77047,365.313055 1091.83126,365.437992 1091.83,365.57 L1091.86,367.06 C1092.04,370.213333 1093.56,372.436667 1096.42,373.73 C1096.72303,373.868406 1097.05044,373.940026 1097.38,373.94 C1102.26,373.98 1104.37,369.11 1104.63,364.95 C1109.09,366.83 1114.31,366.5 1119.06,366.2 L1119.13,390.75 L1118.92,397.97 C1118.90956,398.330093 1118.62009,398.619556 1118.26,398.63 L1106.73,398.81 C1106.46368,398.816467 1106.20445,398.739399 1105.99,398.59 C1105.46333,398.223333 1105.04,397.7 1104.72,397.02 C1105.02,392.35 1104.55,384.99 1099.72,382.89 C1095.99,381.26 1092.52,385.45 1092.2,388.74 C1091.98667,390.9 1092.00667,394.15 1092.26,398.49 L1081.77,398.41 C1081.73667,395.07 1081.69667,391.68 1081.65,388.24 C1081.62333,386.24 1080.72,384.693333 1078.94,383.6 C1078.21526,383.154768 1077.27196,383.342554 1076.78,384.03 C1076.14,384.936667 1075.81333,386.033333 1075.8,387.32 C1075.75333,390.713333 1075.79,394.493333 1075.91,398.66 C1073.62333,399.54 1070.87,399.63 1067.65,398.93 C1067.30623,398.856155 1066.96506,399.073258 1066.88,399.42 C1066.83333,399.64 1066.83333,399.906667 1066.88,400.22 C1067.1,395.306667 1066.90333,391.41 1066.29,388.53 C1065.75,385.97 1064.06,384.56 1061.22,384.3 C1060.88842,384.267432 1060.55567,384.340988 1060.27,384.51 C1055.06,387.63 1056.16,394.08 1056.03,399.19 L1052.21,399.14 C1051.92886,399.133498 1051.65538,399.202735 1051.42,399.34 C1051.35333,399.38 1051.27667,399.426667 1051.19,399.48 C1050.91348,399.657775 1050.60241,399.770581 1050.28,399.81 C1043.58,400.63 1038.63,401.516667 1035.43,402.47 C1028.41,404.58 1022.75,408.68 1017.15,413.73 C1013.58333,416.95 1010.67333,419.09 1008.42,420.15 C1004.59333,421.936667 1000.87333,423.07 997.26,423.55 C989.933333,424.523333 985.263333,424.993333 983.25,424.96 C966.24,424.72 948.31,424.27 933.27,424.88 C921.96,425.34 910.26,425.7 899.58,425.63 C884.6,425.536667 869.656667,425.573333 854.75,425.74 C847.623333,425.82 840.45,425.826667 833.23,425.76 L833.25,329.79 C835.65,331.43 838.296667,332.343333 841.19,332.53 C846.703333,332.876667 852.22,333.003333 857.74,332.91 C871.6,332.683333 883.686667,332.59 894,332.63 C937.19,332.81 956.4,332.61 977.45,333.37 C988.123333,333.756667 994.8,334.04 997.48,334.22 C1002.55,334.56 1007.77,335.6 1012.58,338.14 C1014.26,339.02 1016.46333,340.9 1019.19,343.78 C1029.44,354.59 1040.45,361.31 1055.82,362.52 Z" id="Path" fill="#EEEBE2" fill-rule="nonzero"></path>
        <path d="M1409,332.12 L1409,333.44 L1327.95,333.67 C1328.59,333.703333 1329.08,333.653333 1329.42,333.52 C1329.51592,333.491021 1329.578,333.398311 1329.56827,333.298583 C1329.55854,333.198855 1329.47971,333.119893 1329.38,333.11 L1324.93,332.34 L1409,332.12 Z" id="Path" fill="#C6C6C6" fill-rule="nonzero"></path>
        <path d="M1324.93,332.34 L1329.38,333.11 C1329.47971,333.119893 1329.55854,333.198855 1329.56928,333.298583 C1329.578,333.398311 1329.51592,333.491021 1329.42,333.52 C1329.08,333.653333 1328.59,333.703333 1327.95,333.67 L1178.55,335.47 C1175.07,335.576667 1171.89667,335.19 1169.03,334.31 L1324.93,332.34 Z" id="Path" fill="#8F908F" fill-rule="nonzero"></path>
        <path d="M1091.86,367.06 L1091.83,365.57 C1091.83126,365.437992 1091.77047,365.313055 1091.6651,365.2311 C1091.55973,365.149144 1091.42145,365.119247 1091.29,365.15 C1087.90333,365.99 1084.6,366.06 1081.38,365.36 C1081.42,360.226667 1081.48667,355.153333 1081.58,350.14 C1081.61333,348.52 1081.8,347.443333 1082.14,346.91 C1083.57,344.69 1087.77,345.35 1090.29,345.63 C1091.01856,345.712616 1091.58752,346.294127 1091.65,347.02 C1092.21,353.586667 1092.28,360.266667 1091.86,367.06 Z" id="Path" fill="#F6F7F7" fill-rule="nonzero"></path>
        <path d="M1119.06,366.2 C1114.31,366.5 1109.09,366.83 1104.63,364.95 L1104.85,347.69 C1104.85427,347.013398 1105.3844,346.456989 1106.06,346.42 C1110.56,346.13 1117.95,345.61 1118.87,351.92 C1119.24333,354.48 1119.30667,359.24 1119.06,366.2 Z" id="Path" fill="#F6F7F7" fill-rule="nonzero"></path>
        <path d="M1097.8,366.99 C1097.68595,366.987378 1097.57761,366.939541 1097.49884,366.857018 C1097.42007,366.774495 1097.37732,366.664052 1097.38,366.55 L1097.45,362.6 C1097.60589,354.495773 1098.20534,347.933102 1098.79,347.93 L1099.19,347.94 C1099.47153,347.937117 1099.71195,349.486049 1099.85826,352.245388 C1100.00458,355.004726 1100.04478,358.747952 1099.97,362.65 L1099.89,366.6 C1099.88457,366.833568 1099.69363,367.02 1099.46,367.02 L1097.8,366.99 Z" id="Path" fill="#C6C6C6" fill-rule="nonzero"></path>
        <path d="M1409,361.51 L1409,383.3 C1384.11333,383.186667 1359.22667,383.24 1334.34,383.46 C1305.22,383.72 1276.97,385.51 1245.99,384.42 C1239.82333,384.2 1232.82667,384.096667 1225,384.11 C1193.43333,384.163333 1165.76667,384.453333 1142,384.98 C1136.78667,385.093333 1131.34667,385.84 1125.68,387.22 L1125.87,364.6 C1125.87907,363.478537 1126.76001,362.558154 1127.88,362.5 C1134.13,362.19 1140.27,363.74 1146.06,363.58 C1148.77333,363.506667 1167.98667,363.516667 1203.7,363.61 C1207.48,363.62 1211.67,362.35 1215.84,362.35 C1265.06,362.37 1310.74,362.386667 1352.88,362.4 C1357.16667,362.4 1366.40667,362.15 1380.6,361.65 C1390.06,361.31 1399.52667,361.263333 1409,361.51 Z" id="Path" fill="#EEEBE2" fill-rule="nonzero"></path>
        <path d="M1409,383.3 L1409,393.54 L1127.01,394.17 C1126.44445,394.168745 1125.95342,393.784996 1125.82,393.24 C1125.3,391.173333 1125.25333,389.166667 1125.68,387.22 C1131.34667,385.84 1136.78667,385.093333 1142,384.98 C1165.76667,384.453333 1193.43333,384.163333 1225,384.11 C1232.82667,384.096667 1239.82333,384.2 1245.99,384.42 C1276.97,385.51 1305.22,383.72 1334.34,383.46 C1359.22667,383.24 1384.11333,383.186667 1409,383.3 Z" id="Path" fill="#C6C6C6" fill-rule="nonzero"></path>
        <rect id="Rectangle" fill="#8F908F" fill-rule="nonzero" transform="translate(1098.760000, 398.770000) rotate(-0.100000) translate(-1098.760000, -398.770000) " x="1097.38" y="390.09" width="2.76" height="17.36" rx="1.34"></rect>
        <path d="M1104.72,397.02 C1105.04,397.7 1105.46333,398.223333 1105.99,398.59 C1106.20445,398.739399 1106.46368,398.816467 1106.73,398.81 L1118.26,398.63 C1118.62009,398.619556 1118.90956,398.330093 1118.92,397.97 L1119.13,390.75 C1119.19,393.423333 1119.20667,396.096667 1119.18,398.77 C1119.14,402.363333 1119.08333,404.353333 1119.01,404.74 C1117.89,411.06 1110.58,412.4 1105.64,411.33 C1105.11662,411.221136 1104.74111,410.753838 1104.74,410.21 L1104.72,397.02 Z" id="Path" fill="#C6C6C6" fill-rule="nonzero"></path>
        <path d="M1075.91,398.66 C1076.01,401.986667 1076.15333,405.683333 1076.34,409.75 C1076.46,412.46 1073.88,412.59 1071.46,412.72 C1068.63,412.87 1066.58,410.89 1066.75,408.24 C1066.91667,405.56 1066.96,402.886667 1066.88,400.22 C1066.83333,399.906667 1066.83333,399.64 1066.88,399.42 C1066.96506,399.073258 1067.30623,398.856155 1067.65,398.93 C1070.87,399.63 1073.62333,399.54 1075.91,398.66 Z" id="Path" fill="#C6C6C6" fill-rule="nonzero"></path>
        <path d="M1092.26,398.49 L1092.17,410.1 C1092.16262,410.783727 1091.69379,411.375936 1091.03,411.54 C1089.17,412 1085.46,412.6 1083.81,411.64 C1081.39,410.22 1081.73,408.22 1081.68,405.2 C1081.64667,402.966667 1081.67667,400.703333 1081.77,398.41 L1092.26,398.49 Z" id="Path" fill="#C6C6C6" fill-rule="nonzero"></path>
        <path d="M1056.03,399.19 L1056.03,411.45 C1056.03,412.331432 1055.32589,413.049059 1054.45,413.06 C1041.95667,413.246667 1031.82333,417.903333 1024.05,427.03 C1023.03,428.223333 1019.56,432.923333 1013.64,441.13 C1011.39,444.25 1008.08,445.46 1003.66,445.82 C995.493333,446.48 990.273333,446.813333 988,446.82 C938.593333,447.086667 887.843333,446.95 835.75,446.41 C833.95,446.39 833.06,445.416667 833.07967,443.49 C833.146667,437.616667 833.196667,431.706667 833.23,425.76 C840.45,425.826667 847.623333,425.82 854.75,425.74 C869.656667,425.573333 884.6,425.536667 899.58,425.63 C910.26,425.7 921.96,425.34 933.27,424.88 C948.31,424.27 966.24,424.72 983.25,424.96 C985.263333,424.993333 989.933333,424.523333 997.26,423.55 C1000.87333,423.07 1004.59333,421.936667 1008.42,420.15 C1010.67333,419.09 1013.58333,416.95 1017.15,413.73 C1022.75,408.68 1028.41,404.58 1035.43,402.47 C1038.63,401.516667 1043.58,400.63 1050.28,399.81 C1050.60241,399.770581 1050.91348,399.657775 1051.19,399.48 C1051.27667,399.426667 1051.35333,399.38 1051.42,399.34 C1051.65538,399.202735 1051.92886,399.133498 1052.21,399.139581 L1056.03,399.19 Z" id="Path" fill="#C6C6C6" fill-rule="nonzero"></path>
        <path d="M1294.04,421.67 L1276.71,421.8 C1276.54984,421.8 1276.42,421.929837 1276.42,422.09 L1276.42,422.35 C1276.41983,422.605715 1276.61978,422.814556 1276.87,422.82 L1284.54,422.97 L1144.23,422.63 C1143.21721,422.630738 1142.28335,423.181864 1141.79,424.07 C1136.55,433.51 1125.44,438.23 1114.95,438.95 C1097.55,440.163333 1087.60667,440.8 1085.12,440.86 C1072.35333,441.193333 1063.06667,441.54 1057.26,441.9 C1045.46,442.63 1042.5,451.64 1036.7,458.97 C1025.54,473.08 1011.11,475.65 993.31,476.32 C970.18,477.2 946.81,478.11 920.75,477.85 C911.936667,477.763333 888.363333,477.423333 850.03,476.83 C834.54,476.59 818.19,476.26 810.47,460.21 C810.03251,459.297336 809.264565,458.582968 808.32,458.21 C797.66,453.996667 791.64,445.98 790.26,434.16 C790.926667,434.18 791.206667,432.943333 791.1,430.45 C791.61,439.6 794.58,447.49 802.02,453.24 C802.68,453.746667 805.003333,454.923333 808.99,456.77 C809.465953,456.994779 809.896257,457.303107 810.26,457.68 C811.94,459.46 813.18,462.28 814.79,464.28 C820.63,471.53 828.38,474.28 837.28,474.65 C866.573333,475.876667 901.936667,476.333333 943.37,476.02 C950.436667,475.973333 960.383333,475.66 973.21,475.08 C990.543333,474.3 1000.47333,473.826667 1003,473.66 C1014.98,472.87 1025.12,468.84 1033.67,459.86 C1037.16,456.18 1041.04,448.98 1044.25,445.71 C1047.66333,442.243333 1051.67333,440.356667 1056.28,440.05 C1059.7,439.823333 1067.34,439.676667 1079.2,439.61 C1079.45982,439.603834 1079.71236,439.512641 1079.92,439.35 C1079.98,439.296667 1080.04667,439.246667 1080.12,439.2 C1080.21786,439.141122 1080.32945,439.113223 1080.44,439.12 C1083.65333,439.4 1095.05333,438.83 1114.64,437.41 C1123.91333,436.736667 1131.51667,433.47 1137.45,427.61 C1137.54973,427.516933 1137.64021,427.413051 1137.72,427.3 L1141.14,422.33 C1141.70228,421.505525 1142.6393,421.014528 1143.64,421.019955 C1175.43333,421.14 1213.21333,421.15 1256.98,421.05 C1268.64,421.019955 1281.68,421.46 1294.04,421.67 Z" id="Path" fill="#C6C6C6" fill-rule="nonzero"></path>
        <path d="M1284.54,422.97 L1276.87,422.82 C1276.61978,422.814556 1276.42,422.605715 1276.42,422.35 L1276.42,422.09 C1276.42,421.929837 1276.54984,421.8 1276.71,421.8 L1294.04,421.67 L1408.22,421.92 C1408.37027,421.919976 1408.51425,421.980347 1408.61956,422.08754 C1408.72487,422.194733 1408.78268,422.339754 1408.78009,422.49 L1408.78009,422.52 C1408.76921,422.838012 1408.50819,423.090183 1408.19,423.09 L1284.54,422.97 Z" id="Path" fill="#8F908F" fill-rule="nonzero"></path>
    </g>
</svg>